<svg viewBox="0 0 201.03 24" xmlns="http://www.w3.org/2000/svg"><defs><style>.cls-1{fill:#fff;}</style></defs><title>Asset 1</title><g data-sanitized-data-name="Layer 2" data-name="Layer 2" id="Layer_2"><g data-sanitized-data-name="Layer 1" data-name="Layer 1" id="Layer_1-2"><g data-sanitized-data-name="Layer 1-2" data-name="Layer 1-2" id="Layer_1-2-2"><rect height="6.62" width="45.98" y="16.81" class="cls-1"></rect><rect height="6.62" width="9.2" y="0.43" class="cls-1"></rect><rect height="6.62" width="9.2" y="0.43" x="18.39" class="cls-1"></rect><rect height="6.62" width="9.2" y="0.43" x="36.78" class="cls-1"></rect><rect height="6.61" width="22.2" y="8.62" class="cls-1"></rect><rect height="6.61" width="22.2" y="8.62" x="23.78" class="cls-1"></rect><path d="M80.76,22.65c3-.1,3.71-.68,3.71-1.93V3.24c0-1.25-.67-1.86-3.71-2V.54H91.39v.74c-3,.1-3.71.71-3.71,2V20.72c0,1.25.67,1.83,3.71,1.93v.78H80.76Z" class="cls-1"></path><path d="M98.55,22.65c3-.1,3.91-.68,3.91-1.93V1.48h-1.69c-2.83,0-4.28,0-5.94,4.17l-.74-.06.2-5H113.8l.2,5-.74.06c-1.52-3.88-3-4.17-5.94-4.17h-1.73V20.72c0,1.25.92,1.83,3.92,1.93v.78h-11Z" class="cls-1"></path><path d="M159.14,22.65c2.94-.1,3.68-.68,3.68-1.93V3.24c0-1.25-.74-1.86-3.68-2V.54h18.57l.1,5h-.74c-1.42-4.08-2.57-4.09-6.42-4.09H166V11h2.06c2.66,0,3.85-.61,4.72-4.22h.68v9.39h-.68c-.87-3.62-2.06-4.19-4.72-4.19H166V22.26h4.62c4.53,0,6,.12,7.53-4.2h.74l-.17,5.33H159.14Z" class="cls-1"></path><path d="M182.37,22.65c2.93-.1,3.68-.68,3.68-1.93V3.24c0-1.25-.75-1.86-3.68-2V.54h10.39v.74c-3,.1-3.51.68-3.51,2v19h3.38c4.45,0,6-1.33,7.66-6.26H201l-.27,7.4H182.37Z" class="cls-1"></path><path d="M145.16.54H136v.78c2.45.16,3.12.76,3.12,1.92V20.72c0,1.17-.67,1.74-3.12,1.9v.81h9.47c8.5,0,12.18-5.71,12.18-11.85C157.65,5.16,153.43.54,145.16.54Zm-.34,21.76h-2.49V1.48h2.46c6.14,0,9.18,2.67,9.18,10.3S152,22.3,144.82,22.3Z" class="cls-1"></path><path d="M131.76,19.58,124.61,0h-1.15l-7,17.59c-1.35,3.34-2.3,4.59-4.56,5.13v.71h7.59v-.71c-3-.51-3.34-1.25-1.92-4.93l1.18-3.07h7.87l1.8,5.28c.67,1.89.2,2.57-2.87,2.74v.71h9.51v-.81C133,22.24,132.47,21.49,131.76,19.58ZM119.1,13.77l3.72-9.55H123l3.31,9.55Z" class="cls-1"></path><path d="M70.23.91c-4,0-7.7,3.51-7.7,11.21,0,7.32,4.46,10.36,8.34,10.36a7.15,7.15,0,0,0,3.38-.88,7.89,7.89,0,0,0,2.68-2.36A9.21,9.21,0,0,0,78.05,17l.75.23a11.29,11.29,0,0,1-1.68,3.43A8.13,8.13,0,0,1,74.32,23a8.8,8.8,0,0,1-1,.42,7.62,7.62,0,0,1-1.13.32A10.74,10.74,0,0,1,70,24c-6.52,0-11.11-4.69-11.11-11.75S64,0,70.6,0a11.85,11.85,0,0,1,5.74,1.42h1.18l.24,2.21.47,3.85h-.71C76,3.27,73.64.91,70.23.91Z" class="cls-1"></path></g></g></g></svg>